<svg width="40" height="39" viewBox="0 0 40 39" fill="none" xmlns="http://www.w3.org/2000/svg">
<g clip-path="url(#clip0_204_2040)">
<mask id="mask0_204_2040" style="mask-type:luminance" maskUnits="userSpaceOnUse" x="0" y="0" width="40" height="39">
<path d="M39.1785 0.00195312H0.328613V38.8518H39.1785V0.00195312Z" fill="white"/>
</mask>
<g mask="url(#mask0_204_2040)">
<path d="M19.7535 38.8518C30.4816 38.8518 39.1785 30.155 39.1785 19.4269C39.1785 8.69879 30.4816 0.00195312 19.7535 0.00195312C9.02545 0.00195312 0.328613 8.69879 0.328613 19.4269C0.328613 30.155 9.02545 38.8518 19.7535 38.8518Z" fill="#161616"/>
<path d="M19.7583 31.0819C17.6338 31.0819 15.5489 30.5191 13.7019 29.4529L8.97324 31.0819L9.94434 26.0719C8.4223 23.9831 7.61768 21.5257 7.61768 18.9414C7.61768 12.2468 13.0637 6.80078 19.7583 6.80078C26.4528 6.80078 31.8988 12.2468 31.8988 18.9414C31.8988 25.6359 26.4528 31.0819 19.7583 31.0819ZM13.9199 27.4671L14.2845 27.697C15.9333 28.7315 17.824 29.2785 19.7543 29.2785C25.454 29.2785 30.0875 24.6411 30.0875 18.9453C30.0875 13.2456 25.45 8.61216 19.7543 8.61216C14.0546 8.61216 9.42113 13.2496 9.42113 18.9453C9.42113 21.264 10.1822 23.4599 11.617 25.299L11.8707 25.624L11.3395 28.3629L13.9199 27.4671Z" fill="white"/>
<path d="M13.6301 14.2758C13.6301 14.2758 14.3436 13.0313 14.9222 12.9599C15.5049 12.8886 16.25 12.8886 16.4522 13.2691C16.6544 13.6496 17.5541 15.8534 17.5541 15.8534C17.5541 15.8534 17.7087 16.2339 17.4708 16.6025C17.233 16.9711 16.7019 17.5022 16.7019 17.5022C16.7019 17.5022 16.4047 17.8827 16.7019 18.287C16.9992 18.6913 17.459 19.4325 18.4102 20.3838C19.3615 21.335 21.1848 22.0128 21.1848 22.0128C21.1848 22.0128 21.4464 22.0485 21.6128 21.8821C21.7793 21.7156 22.6791 20.5899 22.6791 20.5899C22.6791 20.5899 22.9684 20.2173 23.452 20.4353C23.9316 20.6533 26.0125 21.6918 26.0125 21.6918C26.0125 21.6918 26.2543 21.7829 26.2543 22.1476C26.2543 22.5162 26.1036 23.4159 25.8024 23.7172C25.4972 24.0224 24.6094 24.9578 23.2736 24.9578C21.9379 24.9578 18.7551 23.8718 17.0587 22.1754C15.3622 20.4789 13.856 18.7587 13.4993 17.1931C13.1426 15.6274 13.1901 14.9219 13.6301 14.2758Z" fill="white"/>
</g>
</g>
<defs>
<clipPath id="clip0_204_2040">
<rect width="38.8499" height="38.8499" fill="white" transform="translate(0.320801 0.00195312)"/>
</clipPath>
</defs>
</svg>
