<svg width="40" height="39" viewBox="0 0 40 39" fill="none" xmlns="http://www.w3.org/2000/svg">
<g clip-path="url(#clip0_204_2024)">
<path d="M20.1959 38.8518C30.924 38.8518 39.6209 30.155 39.6209 19.4269C39.6209 8.69879 30.924 0.00195312 20.1959 0.00195312C9.46783 0.00195312 0.770996 8.69879 0.770996 19.4269C0.770996 30.155 9.46783 38.8518 20.1959 38.8518Z" fill="#161616"/>
<mask id="mask0_204_2024" style="mask-type:luminance" maskUnits="userSpaceOnUse" x="9" y="11" width="22" height="16">
<path d="M30.8767 11.8999H9.50928V26.9542H30.8767V11.8999Z" fill="white"/>
</mask>
<g mask="url(#mask0_204_2024)">
<path d="M30.4299 14.2503C30.3091 13.7957 30.0711 13.3809 29.7395 13.0472C29.408 12.7136 28.9947 12.4728 28.5409 12.3491C26.8703 11.8999 20.193 11.8999 20.193 11.8999C20.193 11.8999 13.5157 11.8999 11.8451 12.3491C11.3913 12.4728 10.978 12.7136 10.6465 13.0472C10.3149 13.3809 10.0769 13.7957 9.95605 14.2503C9.50928 15.9281 9.50928 19.4271 9.50928 19.4271C9.50928 19.4271 9.50928 22.926 9.95605 24.6038C10.0769 25.0584 10.3149 25.4733 10.6465 25.8069C10.978 26.1406 11.3913 26.3813 11.8451 26.505C13.5157 26.9542 20.193 26.9542 20.193 26.9542C20.193 26.9542 26.8703 26.9542 28.5409 26.505C28.9947 26.3813 29.408 26.1406 29.7395 25.8069C30.0711 25.4733 30.3091 25.0584 30.4299 24.6038C30.8767 22.926 30.8767 19.4271 30.8767 19.4271C30.8767 19.4271 30.8767 15.9281 30.4299 14.2503ZM18.0077 22.6043V16.2499L23.5924 19.4271L18.0077 22.6043Z" fill="white"/>
</g>
</g>
<defs>
<clipPath id="clip0_204_2024">
<rect width="38.8499" height="38.8499" fill="white" transform="translate(0.770996 0.00195312)"/>
</clipPath>
</defs>
</svg>
