<svg width="40" height="39" viewBox="0 0 40 39" fill="none" xmlns="http://www.w3.org/2000/svg">
<g clip-path="url(#clip0_204_2031)">
<path d="M20.0458 38.8518C30.7739 38.8518 39.4707 30.155 39.4707 19.4269C39.4707 8.69879 30.7739 0.00195312 20.0458 0.00195312C9.31769 0.00195312 0.62085 8.69879 0.62085 19.4269C0.62085 30.155 9.31769 38.8518 20.0458 38.8518Z" fill="#161616"/>
<path d="M24.3056 8.54883H15.5917C12.0453 8.54883 9.16772 11.4264 9.16772 14.9728V23.6867C9.16772 27.2331 12.0453 30.1107 15.5917 30.1107H24.3056C27.852 30.1107 30.7296 27.2331 30.7296 23.6867V14.9728C30.7296 11.4264 27.852 8.54883 24.3056 8.54883ZM28.5612 23.707C28.5612 26.0577 26.6563 27.9626 24.3056 27.9626H15.5917C13.241 27.9626 11.3361 26.0577 11.3361 23.707V14.993C11.3361 12.6423 13.241 10.7374 15.5917 10.7374H24.3056C26.6563 10.7374 28.5612 12.6423 28.5612 14.993V23.707Z" fill="white"/>
<path d="M19.932 13.7568C16.8517 13.7568 14.3591 16.2697 14.3591 19.3297C14.3591 22.3897 16.872 24.9025 19.932 24.9025C22.992 24.9025 25.5049 22.3897 25.5049 19.3297C25.5049 16.2697 23.0123 13.7568 19.932 13.7568ZM19.932 22.7545C18.0474 22.7545 16.5275 21.2346 16.5275 19.35C16.5275 17.4653 18.0474 15.9454 19.932 15.9454C21.8167 15.9454 23.3365 17.4653 23.3365 19.35C23.3568 21.2143 21.8167 22.7545 19.932 22.7545Z" fill="white"/>
<path d="M25.5247 15.1349C26.2634 15.1349 26.8622 14.5361 26.8622 13.7974C26.8622 13.0587 26.2634 12.46 25.5247 12.46C24.7861 12.46 24.1873 13.0587 24.1873 13.7974C24.1873 14.5361 24.7861 15.1349 25.5247 15.1349Z" fill="white"/>
</g>
<defs>
<clipPath id="clip0_204_2031">
<rect width="38.8499" height="38.8499" fill="white" transform="translate(0.62085 0.00195312)"/>
</clipPath>
</defs>
</svg>
