<svg width="39" height="39" viewBox="0 0 39 39" fill="none" xmlns="http://www.w3.org/2000/svg">
<g clip-path="url(#clip0_204_2017)">
<path d="M19.4962 38.8518C30.2243 38.8518 38.9212 30.155 38.9212 19.4269C38.9212 8.69879 30.2243 0.00195312 19.4962 0.00195312C8.76813 0.00195312 0.0712891 8.69879 0.0712891 19.4269C0.0712891 30.155 8.76813 38.8518 19.4962 38.8518Z" fill="#161616"/>
<path d="M24.5198 12.4881C24.5198 12.4881 22.8522 12.4881 22.188 12.4881C21.3684 12.4881 21.1988 12.8273 21.1988 13.6752C21.1988 14.3818 21.1988 15.7243 21.1988 15.7243H24.5198L24.1948 19.328H21.1846V30.1106H16.8886V19.3703H14.6416V15.7385H16.8886C16.8886 15.7385 16.8886 15.2156 16.8886 12.8556C16.8886 10.1564 18.3441 8.74316 21.538 8.74316C22.0609 8.74316 24.5198 8.74316 24.5198 8.74316V12.4881Z" fill="white"/>
</g>
<defs>
<clipPath id="clip0_204_2017">
<rect width="38.8499" height="38.8499" fill="white" transform="translate(0.0712891 0.00195312)"/>
</clipPath>
</defs>
</svg>
