<svg width="40" height="39" viewBox="0 0 40 39" fill="none" xmlns="http://www.w3.org/2000/svg">
<mask id="mask0_204_2072" style="mask-type:luminance" maskUnits="userSpaceOnUse" x="8" y="1" width="24" height="25">
<path d="M31.8036 1.94434H8.49365V25.2543H31.8036V1.94434Z" fill="white"/>
</mask>
<g mask="url(#mask0_204_2072)">
<path d="M24.8588 1.94434H15.4384C11.6046 1.94434 8.49365 5.05524 8.49365 8.88914V18.3095C8.49365 22.1433 11.6046 25.2543 15.4384 25.2543H24.8588C28.6927 25.2543 31.8036 22.1433 31.8036 18.3095V8.88914C31.8036 5.05524 28.6927 1.94434 24.8588 1.94434ZM29.4594 18.3314C29.4594 20.8727 27.4001 22.932 24.8588 22.932H15.4384C12.8971 22.932 10.8378 20.8727 10.8378 18.3314V8.91104C10.8378 6.36972 12.8971 4.31038 15.4384 4.31038H24.8588C27.4001 4.31038 29.4594 6.36972 29.4594 8.91104V18.3314Z" fill="white"/>
<path d="M20.1238 7.57471C16.7937 7.57471 14.0991 10.2912 14.0991 13.5993C14.0991 16.9074 16.8156 19.624 20.1238 19.624C23.4318 19.624 26.1484 16.9074 26.1484 13.5993C26.1484 10.2912 23.4537 7.57471 20.1238 7.57471ZM20.1238 17.3017C18.0863 17.3017 16.4432 15.6587 16.4432 13.6213C16.4432 11.5838 18.0863 9.94071 20.1238 9.94071C22.1612 9.94071 23.8043 11.5838 23.8043 13.6213C23.8262 15.6368 22.1612 17.3017 20.1238 17.3017Z" fill="white"/>
<path d="M26.1701 9.06469C26.9686 9.06469 27.616 8.4173 27.616 7.61879C27.616 6.82024 26.9686 6.17285 26.1701 6.17285C25.3715 6.17285 24.7241 6.82024 24.7241 7.61879C24.7241 8.4173 25.3715 9.06469 26.1701 9.06469Z" fill="white"/>
</g>
<mask id="mask1_204_2072" style="mask-type:luminance" maskUnits="userSpaceOnUse" x="5" y="30" width="30" height="7">
<path d="M34.7209 30.1104H5.5835V36.9662H34.7209V30.1104Z" fill="white"/>
</mask>
<g mask="url(#mask1_204_2072)">
<path d="M11.8927 33.7647L14.9925 36.9662H12.3133L8.22242 32.7548H12.0598V31.1203H7.88244V36.9714H5.5835V30.1104H14.3011V33.7647H11.8927ZM17.7524 36.9662H24.5167V30.1104H15.9086V35.0766L17.7524 36.9662ZM18.173 31.1203H22.2524V35.9615H19.4637L18.173 34.6393V31.1203ZM32.4565 33.2337H34.7209V36.9662H26.0782V30.1104H35.0551L34.0928 31.1203H28.3887V35.9615H32.4565V33.2337Z" fill="white"/>
</g>
</svg>
