<svg width="40" height="39" viewBox="0 0 40 39" fill="none" xmlns="http://www.w3.org/2000/svg">
<mask id="mask0_204_2061" style="mask-type:luminance" maskUnits="userSpaceOnUse" x="8" y="5" width="24" height="17">
<path d="M31.9576 5.36816H8.64771V21.7911H31.9576V5.36816Z" fill="white"/>
</mask>
<g mask="url(#mask0_204_2061)">
<path d="M31.4702 7.93225C31.3385 7.43634 31.0787 6.98374 30.717 6.61976C30.3554 6.25579 29.9045 5.99316 29.4094 5.85821C27.587 5.36816 20.3027 5.36816 20.3027 5.36816C20.3027 5.36816 13.0183 5.36816 11.1959 5.85821C10.7009 5.99316 10.2499 6.25579 9.88828 6.61976C9.52659 6.98374 9.26687 7.43634 9.13508 7.93225C8.6477 9.76262 8.64771 13.5796 8.64771 13.5796C8.64771 13.5796 8.6477 17.3966 9.13508 19.227C9.26687 19.7228 9.52659 20.1754 9.88828 20.5395C10.2499 20.9034 10.7009 21.1661 11.1959 21.301C13.0183 21.7911 20.3027 21.7911 20.3027 21.7911C20.3027 21.7911 27.587 21.7911 29.4094 21.301C29.9045 21.1661 30.3554 20.9034 30.717 20.5395C31.0787 20.1754 31.3385 19.7228 31.4702 19.227C31.9576 17.3966 31.9576 13.5796 31.9576 13.5796C31.9576 13.5796 31.9576 9.76262 31.4702 7.93225ZM17.9187 17.0456V10.1136L24.0111 13.5796L17.9187 17.0456Z" fill="white"/>
</g>
<mask id="mask1_204_2061" style="mask-type:luminance" maskUnits="userSpaceOnUse" x="5" y="30" width="30" height="7">
<path d="M34.8674 30.1104H5.72998V36.9662H34.8674V30.1104Z" fill="white"/>
</mask>
<g mask="url(#mask1_204_2061)">
<path d="M12.0391 33.7647L15.139 36.9662H12.4597L8.36891 32.7548H12.2063V31.1203H8.02892V36.9714H5.72998V30.1104H14.4476V33.7647H12.0391ZM17.8989 36.9662H24.6632V30.1104H16.0551V35.0766L17.8989 36.9662ZM18.3195 31.1203H22.3989V35.9615H19.6102L18.3195 34.6393V31.1203ZM32.603 33.2337H34.8674V36.9662H26.2247V30.1104H35.2016L34.2393 31.1203H28.5351V35.9615H32.603V33.2337Z" fill="white"/>
</g>
</svg>
