<svg width="40" height="39" viewBox="0 0 40 39" fill="none" xmlns="http://www.w3.org/2000/svg">
<mask id="mask0_204_2048" style="mask-type:luminance" maskUnits="userSpaceOnUse" x="5" y="30" width="30" height="7">
<path d="M34.1674 30.1104H5.03003V36.9662H34.1674V30.1104Z" fill="white"/>
</mask>
<g mask="url(#mask0_204_2048)">
<path d="M11.3392 33.7647L14.439 36.9662H11.7598L7.66895 32.7548H11.5063V31.1203H7.32897V36.9714H5.03003V30.1104H13.7476V33.7647H11.3392ZM17.1989 36.9662H23.9633V30.1104H15.3552V35.0766L17.1989 36.9662ZM17.6196 31.1203H21.6989V35.9615H18.9102L17.6196 34.6393V31.1203ZM31.9031 33.2337H34.1674V36.9662H25.5247V30.1104H34.5016L33.5394 31.1203H27.8352V35.9615H31.9031V33.2337Z" fill="white"/>
</g>
<path d="M25.4272 6.02974C25.4272 6.02974 23.4597 6.02974 22.676 6.02974C21.7089 6.02974 21.5088 6.39973 21.5088 7.32475C21.5088 8.09558 21.5088 9.56012 21.5088 9.56012H25.4272L25.0437 13.4914H21.4922V25.2543H16.4233V13.5376H13.7722V9.57557H16.4233C16.4233 9.57557 16.4233 9.00515 16.4233 6.43057C16.4233 3.486 18.1407 1.94434 21.909 1.94434C22.526 1.94434 25.4272 1.94434 25.4272 1.94434V6.02974Z" fill="white"/>
</svg>
