<svg width="40" height="39" viewBox="0 0 40 39" fill="none" xmlns="http://www.w3.org/2000/svg">
<path d="M26.1154 13.5994C26.0168 13.5501 25.8726 13.5027 25.7739 13.4534C25.5804 9.81117 23.5886 7.7226 20.2386 7.7226H20.1892C18.1993 7.7226 16.547 8.59711 15.5284 10.1033L17.3741 11.3648C18.15 10.2001 19.3166 9.95724 20.1892 9.95724C20.1892 9.95724 20.1892 9.95724 20.2386 9.95724C21.3559 9.95724 22.1811 10.2968 22.716 10.9285C23.103 11.3648 23.3458 11.9965 23.4919 12.7743C22.5206 12.6282 21.4526 12.5789 20.3353 12.6282C17.1787 12.8217 15.1395 14.6674 15.2856 17.2416C15.333 18.5524 16.014 19.6698 17.1313 20.3982C18.0532 21.0299 19.2673 21.3201 20.5307 21.2727C22.1811 21.176 23.4919 20.5443 24.4157 19.3776C25.0948 18.505 25.5311 17.3877 25.7265 15.9308C26.5024 16.4164 27.0866 17.0481 27.4262 17.7766C27.9593 19.0381 28.0086 21.176 26.3089 22.8757C24.8027 24.38 23.0063 25.0117 20.2386 25.061C17.2281 25.061 14.8967 24.0897 13.4398 22.1472C11.9829 20.3982 11.2545 17.824 11.2052 14.5707C11.2545 11.2681 11.9336 8.74317 13.343 6.94674C14.8474 5.05166 17.1313 4.0804 20.1418 4.03298C23.2016 4.03298 25.5311 5.05166 27.0866 6.94674C27.8625 7.86867 28.3975 9.03531 28.7863 10.4429L30.9223 9.86049C30.486 8.1608 29.7576 6.70392 28.7863 5.53728C26.7945 3.10915 23.8808 1.84766 20.1418 1.79834C16.4029 1.84766 13.5365 3.06173 11.594 5.53728C9.89434 7.7226 8.97241 10.735 8.97241 14.5707C9.01984 18.359 9.89434 21.4188 11.594 23.6041C13.5365 26.0322 16.4029 27.2937 20.1418 27.343C23.4445 27.343 25.8233 26.4685 27.7164 24.526C30.2432 22.0012 30.1446 18.8446 29.3194 16.9021C28.7863 15.4926 27.669 14.3772 26.1154 13.5994ZM20.3846 18.9906C18.9752 19.0874 17.5676 18.4557 17.4709 17.0956C17.4215 16.1243 18.1993 15.007 20.4814 14.8628C20.7242 14.8628 21.0163 14.8628 21.2591 14.8628C22.0843 14.8628 22.8602 14.9596 23.5886 15.1056C23.2984 18.4064 21.7448 18.9413 20.3846 18.9906Z" fill="white"/>
<path d="M12.5598 33.8496L15.5229 37.249H12.9487L9.0637 32.7816H12.7059V31.0819H8.72414V37.249H6.53882V30.0139H14.8419V33.8496H12.5598Z" fill="white"/>
<path d="M15.8162 35.2588V30.0137H24.0244V37.2487H17.5652L15.8162 35.2588ZM17.9541 34.7732L19.1681 36.1807H21.8391V31.0817H17.9541V34.7732Z" fill="white"/>
<path d="M31.1091 33.3163H33.2945V37.2487H25.0388V30.0137H33.5866L32.6647 31.0817H27.2241V36.1807H31.1091V33.3163Z" fill="white"/>
</svg>
