<svg width="40" height="39" viewBox="0 0 40 39" fill="none" xmlns="http://www.w3.org/2000/svg">
<g clip-path="url(#clip0_204_2036)">
<path d="M39.3325 19.427C39.3325 30.1544 30.6349 38.8521 19.9075 38.8521C9.18006 38.8521 0.482422 30.1544 0.482422 19.427C0.482422 8.6996 9.18006 0.00195312 19.9075 0.00195312C30.6349 0.00195312 39.3325 8.6996 39.3325 19.427Z" fill="#161616"/>
<path d="M26.4654 18.4066C26.3686 18.3592 26.2226 18.3099 26.1258 18.2625C25.9304 14.3774 23.7944 12.1428 20.2016 12.0935H20.1522C18.0162 12.0935 16.2179 13.0173 15.1499 14.6677L17.1417 16.0278C17.9669 14.7644 19.2303 14.5216 20.2016 14.5216C20.2016 14.5216 20.2016 14.5216 20.249 14.5216C21.4156 14.5216 22.3376 14.8631 22.8725 15.5422C23.3088 16.0278 23.5516 16.7069 23.6977 17.534C22.6297 17.3386 21.5124 17.2912 20.2983 17.3879C16.8989 17.5814 14.7136 19.5733 14.8597 22.341C14.9564 23.7485 15.6355 24.9626 16.8022 25.7403C17.8209 26.4195 19.0842 26.7116 20.4444 26.6623C22.2408 26.5655 23.6009 25.8864 24.6196 24.623C25.3481 23.7011 25.8337 22.4377 26.0291 20.9334C26.8543 21.4664 27.486 22.0981 27.8729 22.9233C28.4572 24.2835 28.5046 26.5655 26.6589 28.4113C25.0578 30.0142 23.1153 30.7427 20.1522 30.7427C16.8989 30.7427 14.4215 29.6747 12.8185 27.6335C11.3142 25.7403 10.5365 22.9726 10.489 19.4272C10.5365 15.8817 11.3142 13.1634 12.8185 11.2209C14.4215 9.17972 16.8989 8.11172 20.1522 8.11172C23.4549 8.16105 25.9304 9.17972 27.6301 11.2209C28.4572 12.2395 29.0396 13.5029 29.4759 14.9598L31.8073 14.3281C31.3216 12.5317 30.5439 10.9287 29.4759 9.66535C27.3399 7.04373 24.2307 5.68359 20.2016 5.68359C16.1705 5.73291 13.1107 7.04373 11.0221 9.71467C9.17633 12.0461 8.20508 15.3487 8.20508 19.4272C8.2544 23.5057 9.17633 26.7609 11.0221 29.1397C13.1107 31.7613 16.1705 33.1215 20.2016 33.1708C23.7451 33.1215 26.2719 32.1995 28.3586 30.1603C31.0788 27.44 30.9821 24.0406 30.1076 21.9521C29.3791 20.4478 28.1651 19.2337 26.4654 18.4066ZM20.2983 24.2341C18.7921 24.3328 17.2385 23.6518 17.1892 22.1949C17.1417 21.1269 17.9669 19.9621 20.3951 19.8161C20.6872 19.8161 20.93 19.8161 21.2202 19.8161C22.0947 19.8161 22.9693 19.9128 23.6977 20.0589C23.4549 23.555 21.7552 24.1374 20.2983 24.2341Z" fill="white"/>
</g>
<defs>
<clipPath id="clip0_204_2036">
<rect width="38.8501" height="38.8501" fill="white" transform="translate(0.470703 0.00195312)"/>
</clipPath>
</defs>
</svg>
