<svg width="39" height="39" viewBox="0 0 39 39" fill="none" xmlns="http://www.w3.org/2000/svg">
<path d="M12.0219 33.8491L14.985 37.2485H12.4108L8.52584 32.7811H12.168V31.0814H8.18628V37.2485H6.00098V30.0134H14.304V33.8491H12.0219Z" fill="white"/>
<path d="M15.2783 35.2588V30.0137H23.4865V37.2487H17.0273L15.2783 35.2588ZM17.4162 34.7732L18.6303 36.1807H21.3012V31.0817H17.4162V34.7732Z" fill="white"/>
<path d="M30.5713 33.3163H32.7566V37.2487H24.501V30.0137H33.0487L32.1268 31.0817H26.6863V36.1807H30.5713V33.3163Z" fill="white"/>
<path d="M6.57453 2.40137L16.5791 15.8053L6.47778 26.6825H8.75983L17.5997 17.1636L24.6887 26.6825H32.4112L21.8242 12.5501L31.1971 2.40137H28.9625L20.8037 11.1919L14.2478 2.40137H6.57453ZM9.87715 4.10105H13.4226L29.0593 25.0322H25.5138L9.87715 4.10105Z" fill="white"/>
</svg>
