<svg width="40" height="39" viewBox="0 0 40 39" fill="none" xmlns="http://www.w3.org/2000/svg">
<g clip-path="url(#clip0_204_2020)">
<path d="M39.7788 19.4269C39.7788 30.1542 31.0812 38.8518 20.3539 38.8518C9.62654 38.8518 0.928955 30.1542 0.928955 19.4269C0.928955 8.69954 9.62654 0.00195312 20.3539 0.00195312C31.0812 0.00195312 39.7788 8.69954 39.7788 19.4269Z" fill="#161616"/>
<path d="M8.25586 8.08301L17.6288 20.6125L8.20654 30.8106H10.3444L18.6 21.8758L25.2527 30.8106H32.4877L22.5817 17.5527L31.3723 8.08301H29.2344L21.6598 16.2912L15.4909 8.08301H8.25586ZM11.4124 9.63662H14.715L29.3805 29.2076H26.0779L11.4124 9.63662Z" fill="white"/>
</g>
<defs>
<clipPath id="clip0_204_2020">
<rect width="38.8499" height="38.8499" fill="white" transform="translate(0.921143 0.00195312)"/>
</clipPath>
</defs>
</svg>
