<svg width="23" height="23" viewBox="0 0 23 23" fill="none" xmlns="http://www.w3.org/2000/svg">
<g clip-path="url(#clip0_0_6215)">
<path d="M21.6793 4.23446C21.3943 3.8975 20.9951 3.69168 20.5552 3.65495L5.06262 2.36133C4.6227 2.3246 4.195 2.46136 3.85799 2.74637C3.52237 3.03027 3.31685 3.42743 3.27895 3.86515L2.96725 6.78942H1.72267C0.811564 6.78942 0.0703125 7.53067 0.0703125 8.44177V18.1399C0.0703125 19.051 0.811564 19.7922 1.72267 19.7922H17.2693C18.1804 19.7922 18.9217 19.051 18.9217 18.1399V16.5667L19.4733 16.6127C19.5199 16.6166 19.5661 16.6185 19.612 16.6185C20.4614 16.6185 21.1855 15.965 21.2575 15.1036L22.0645 5.43913C22.1012 4.99926 21.9644 4.57147 21.6793 4.23446ZM1.72267 7.64879H17.2693C17.7065 7.64879 18.0623 8.00453 18.0623 8.44177V9.32547H0.929684V8.44177C0.929684 8.00453 1.28542 7.64879 1.72267 7.64879ZM0.929684 10.1848H18.0623V11.9676H0.929684V10.1848ZM17.2693 18.9329H1.72267C1.28542 18.9329 0.929684 18.5771 0.929684 18.1399V12.8269H18.0623V18.1399C18.0623 18.5771 17.7065 18.9329 17.2693 18.9329ZM21.2081 5.36759L20.4011 15.032C20.3647 15.4678 19.9805 15.7928 19.5448 15.7563L18.9217 15.7043V8.44177C18.9217 7.53067 18.1804 6.78942 17.2693 6.78942H3.83152L4.13398 3.95177C4.13432 3.94851 4.13462 3.94528 4.13488 3.94198C4.17128 3.50623 4.55524 3.18122 4.99112 3.21774L20.4838 4.51135C20.6949 4.52897 20.8865 4.62775 21.0233 4.78949C21.16 4.95122 21.2257 5.15648 21.2081 5.36759Z" fill="white"/>
<path d="M16.2643 14.1045H12.1289C11.8916 14.1045 11.6992 14.2969 11.6992 14.5342V17.2321C11.6992 17.4695 11.8916 17.6618 12.1289 17.6618H16.2643C16.5016 17.6618 16.694 17.4695 16.694 17.2321V14.5342C16.694 14.2969 16.5016 14.1045 16.2643 14.1045ZM15.8346 16.8025H12.5586V14.9639H15.8346V16.8025Z" fill="white"/>
</g>
<defs>
<clipPath id="clip0_0_6215">
<rect width="22" height="22" fill="white" transform="translate(0.0703125 0.0742188)"/>
</clipPath>
</defs>
</svg>
