<svg width="23" height="23" viewBox="0 0 23 23" fill="none" xmlns="http://www.w3.org/2000/svg">
<g clip-path="url(#clip0_0_6186)">
<mask id="mask0_0_6186" style="mask-type:luminance" maskUnits="userSpaceOnUse" x="0" y="0" width="23" height="23">
<path d="M0.0703125 0.0742188H22.0703V22.0742H0.0703125V0.0742188Z" fill="white"/>
</mask>
<g mask="url(#mask0_0_6186)">
<path d="M8.0603 11.3936C8.0603 10.366 7.22877 9.53443 6.20117 9.53443" stroke="white" stroke-width="0.717391" stroke-miterlimit="10" stroke-linecap="round" stroke-linejoin="round"/>
<path d="M19.0664 11.3936C19.0664 10.366 19.8979 9.53443 20.9255 9.53443" stroke="white" stroke-width="0.717391" stroke-miterlimit="10" stroke-linecap="round" stroke-linejoin="round"/>
<path d="M19.0664 3.54126C19.0664 4.56886 19.8979 5.40039 20.9255 5.40039" stroke="white" stroke-width="0.717391" stroke-miterlimit="10" stroke-linecap="round" stroke-linejoin="round"/>
<path d="M13.5625 3.51157H20.256C20.641 3.51157 20.9531 3.8237 20.9531 4.20874V10.7257C20.9531 11.1107 20.641 11.4229 20.256 11.4229H15.4961" stroke="white" stroke-width="0.717391" stroke-miterlimit="10" stroke-linecap="round" stroke-linejoin="round"/>
<path d="M11.6289 11.4229H6.86904C6.48404 11.4229 6.17188 11.1107 6.17188 10.7257V6.99454" stroke="white" stroke-width="0.717391" stroke-miterlimit="10" stroke-linecap="round" stroke-linejoin="round"/>
<path d="M4.28125 1.19101H10.512C11.1239 1.19101 11.7185 1.39366 12.2031 1.76731L14.4648 3.51133H9.79238C9.29974 3.51133 8.90039 3.91068 8.90039 4.40332C8.90039 4.72786 9.07669 5.02679 9.36067 5.18384L11.5713 6.40648C12.0297 6.65995 12.2334 7.21081 12.0504 7.70155C11.8725 8.17859 11.3799 8.46111 10.8783 8.37393L9.32617 8.10404C7.88061 7.85267 6.50939 7.28188 5.3125 6.4332H4.28125" stroke="white" stroke-width="0.717391" stroke-miterlimit="10" stroke-linecap="round" stroke-linejoin="round"/>
<path d="M4.28125 7.37891H0.5V0.503906H4.28125V7.37891Z" stroke="white" stroke-width="0.717391" stroke-miterlimit="10" stroke-linecap="round" stroke-linejoin="round"/>
<path d="M17.8563 21.1289H9.43832C7.94954 21.1289 6.52173 20.5375 5.46899 19.4848L3.13463 17.1504C2.71676 16.7325 2.71835 16.0545 3.1382 15.6385C3.55529 15.2253 4.22797 15.2269 4.64309 15.6421L6.73189 17.7315C7.43193 18.4318 8.38146 18.8252 9.37159 18.8252H11.6928" stroke="white" stroke-width="0.717391" stroke-miterlimit="10" stroke-linecap="round" stroke-linejoin="round"/>
<path d="M14.2289 18.8252H9.54998C8.96255 18.8252 8.48633 18.349 8.48633 17.7615C8.48633 17.1741 8.96255 16.6979 9.54998 16.6979H12.2629L12.8241 16.0317C13.5224 15.2028 14.551 14.7244 15.6348 14.7244C16.4102 14.7244 17.1657 14.9696 17.7933 15.425L17.8558 15.4704" stroke="white" stroke-width="0.717391" stroke-miterlimit="10" stroke-linecap="round" stroke-linejoin="round"/>
<path d="M21.6406 21.6445H17.8594V14.7695H21.6406V21.6445Z" stroke="white" stroke-width="0.717391" stroke-miterlimit="10" stroke-linecap="round" stroke-linejoin="round"/>
</g>
<path d="M13.6047 9.43164V6.73043H13.5942L12.9438 7.03989L12.8127 6.44195L13.7148 6.02235H14.3757V9.43164H13.6047ZM16.2885 9.48934C15.4231 9.48934 15.0244 9.00155 15.0244 8.53998C15.0244 8.13086 15.2605 7.84763 15.6329 7.68503V7.6693C15.3024 7.50146 15.1398 7.22347 15.1398 6.9245C15.1398 6.34754 15.6591 5.96465 16.341 5.96465C17.1382 5.96465 17.4686 6.42622 17.4686 6.84058C17.4686 7.1343 17.3113 7.42278 16.9756 7.59062V7.60636C17.3061 7.73224 17.5998 8.01547 17.5998 8.45606C17.5998 9.07498 17.0805 9.48934 16.2885 9.48934ZM16.32 8.9386C16.6032 8.9386 16.7868 8.75503 16.7868 8.51375C16.7868 8.21479 16.5665 8.03645 16.2518 7.95253C15.9895 8.02596 15.8374 8.21479 15.8374 8.4613C15.8322 8.70782 16.021 8.9386 16.32 8.9386ZM16.3042 6.50489C16.0315 6.50489 15.8899 6.68323 15.8899 6.89827C15.8899 7.12906 16.0997 7.27592 16.3724 7.35984C16.556 7.30739 16.7186 7.13955 16.7186 6.9245C16.7186 6.7147 16.598 6.50489 16.3042 6.50489Z" fill="white"/>
</g>
<defs>
<clipPath id="clip0_0_6186">
<rect width="22" height="22" fill="white" transform="translate(0.0703125 0.0742188)"/>
</clipPath>
</defs>
</svg>
