<svg width="23" height="23" viewBox="0 0 23 23" fill="none" xmlns="http://www.w3.org/2000/svg">
<g clip-path="url(#clip0_0_6221)">
<path d="M21.508 9.95251H20.4777C20.4908 9.89393 20.4976 9.83409 20.4979 9.77405V1.37635C20.4952 1.14802 20.4021 0.930084 20.2389 0.770368C20.0757 0.610652 19.8558 0.52221 19.6275 0.524456H7.22623C6.9979 0.52221 6.778 0.610652 6.61482 0.770368C6.45163 0.930084 6.35848 1.14802 6.35581 1.37635V6.58535H1.17207C0.939571 6.58579 0.716724 6.67835 0.552323 6.84275C0.387923 7.00715 0.295367 7.23 0.294922 7.46249L0.294922 18.5017C0.294921 18.7345 0.387281 18.9578 0.55173 19.1226C0.716178 19.2873 0.939279 19.3801 1.17207 19.3806H8.72293V21.4009H4.67223C4.58293 21.4009 4.49729 21.4363 4.43414 21.4995C4.37099 21.5626 4.33552 21.6483 4.33552 21.7376C4.33552 21.8269 4.37099 21.9125 4.43414 21.9757C4.49729 22.0388 4.58293 22.0743 4.67223 22.0743H13.4269C13.5162 22.0743 13.6018 22.0388 13.6649 21.9757C13.7281 21.9125 13.7636 21.8269 13.7636 21.7376C13.7636 21.6483 13.7281 21.5626 13.6649 21.4995C13.6018 21.4363 13.5162 21.4009 13.4269 21.4009H9.39636V19.3806H16.9472C17.1797 19.3801 17.4026 19.2876 17.567 19.1232C17.7314 18.9588 17.8239 18.7359 17.8244 18.5034V11.9728H20.3295C21.3144 11.9728 21.8448 11.1428 21.8448 10.3616V10.2892C21.8448 10.1999 21.8093 10.1143 21.7461 10.0511C21.683 9.98798 21.5973 9.95251 21.508 9.95251ZM7.02925 1.37635C7.03229 1.32678 7.0546 1.28036 7.0914 1.24701C7.12821 1.21367 7.17659 1.19604 7.22623 1.19789H19.6275C19.6771 1.19604 19.7255 1.21367 19.7623 1.24701C19.7991 1.28036 19.8214 1.32678 19.8245 1.37635V9.77405C19.8214 9.82362 19.7991 9.87004 19.7623 9.90338C19.7255 9.93673 19.6771 9.95436 19.6275 9.95251H17.8261V7.46249C17.8256 7.2297 17.7328 7.0066 17.5681 6.84215C17.4033 6.67771 17.18 6.58535 16.9472 6.58535H7.02925V1.37635ZM17.1526 18.5034C17.1517 18.5575 17.1298 18.609 17.0914 18.6471C17.053 18.6851 17.0013 18.7067 16.9472 18.7071H1.17207C1.11831 18.7063 1.067 18.6845 1.02898 18.6465C0.990963 18.6085 0.969222 18.5572 0.968354 18.5034V7.46249C0.969222 7.40874 0.990963 7.35742 1.02898 7.31941C1.067 7.28139 1.11831 7.25965 1.17207 7.25878H16.9472C17.001 7.25965 17.0523 7.28139 17.0903 7.31941C17.1283 7.35742 17.1501 7.40874 17.1509 7.46249L17.1526 18.5034ZM20.3295 11.2994H17.8261V10.6259H21.136C21.1036 10.8157 21.0046 10.9878 20.8568 11.1112C20.709 11.2346 20.5221 11.3013 20.3295 11.2994Z" fill="white" stroke="white" stroke-width="0.4"/>
<path d="M1.64373 2.905V4.12728L0.870965 3.3562C0.806811 3.29827 0.722838 3.26723 0.636432 3.26951C0.550026 3.27179 0.467806 3.30721 0.406795 3.36844C0.345784 3.42967 0.310655 3.51201 0.308682 3.59843C0.306708 3.68484 0.338042 3.7687 0.396195 3.83265L1.72286 5.15931C1.75413 5.19062 1.79126 5.21546 1.83214 5.2324C1.87302 5.24935 1.91683 5.25807 1.96108 5.25807C2.00533 5.25807 2.04915 5.24935 2.09003 5.2324C2.1309 5.21546 2.16804 5.19062 2.19931 5.15931L2.21951 5.13911L3.52597 3.83265C3.58915 3.76947 3.62465 3.68378 3.62465 3.59442C3.62465 3.50507 3.58915 3.41938 3.52597 3.3562C3.46279 3.29302 3.3771 3.25752 3.28775 3.25752C3.19839 3.25752 3.1127 3.29302 3.04952 3.3562L2.31716 4.08856V2.91005C2.31337 2.68783 2.35362 2.46706 2.43559 2.26048C2.51755 2.05389 2.63961 1.86558 2.79471 1.7064C2.94982 1.54723 3.13491 1.42034 3.3393 1.33305C3.54369 1.24577 3.76335 1.19981 3.98559 1.19785H4.67417C4.76348 1.19785 4.84912 1.16237 4.91227 1.09922C4.97542 1.03608 5.01089 0.950433 5.01089 0.86113C5.01089 0.771828 4.97542 0.686182 4.91227 0.623036C4.84912 0.559889 4.76348 0.524414 4.67417 0.524414H3.98559C3.67535 0.526393 3.36855 0.589602 3.08279 0.710415C2.79702 0.831229 2.53793 1.00727 2.32035 1.22844C2.10278 1.44961 1.93101 1.71156 1.8149 1.99926C1.69879 2.28697 1.64062 2.59476 1.64373 2.905Z" fill="white" stroke="white" stroke-width="0.4"/>
<path d="M20.4189 17.4396C20.3876 17.4083 20.3505 17.3834 20.3096 17.3665C20.2687 17.3495 20.2249 17.3408 20.1807 17.3408C20.1364 17.3408 20.0926 17.3495 20.0517 17.3665C20.0108 17.3834 19.9737 17.4083 19.9424 17.4396L19.9222 17.4598L18.6158 18.7662C18.5526 18.8294 18.5171 18.9151 18.5171 19.0045C18.5171 19.0938 18.5526 19.1795 18.6158 19.2427C18.679 19.3059 18.7647 19.3414 18.854 19.3414C18.9434 19.3414 19.029 19.3059 19.0922 19.2427L19.8246 18.5103V19.6888C19.8284 19.9111 19.7881 20.1318 19.7062 20.3384C19.6242 20.545 19.5021 20.7333 19.347 20.8925C19.1919 21.0517 19.0068 21.1786 18.8024 21.2658C18.5981 21.3531 18.3784 21.3991 18.1562 21.401H17.4676C17.3783 21.401 17.2926 21.4365 17.2295 21.4997C17.1663 21.5628 17.1309 21.6485 17.1309 21.7378C17.1309 21.8271 17.1663 21.9127 17.2295 21.9759C17.2926 22.039 17.3783 22.0745 17.4676 22.0745H18.1562C18.4664 22.0725 18.7732 22.0093 19.059 21.8885C19.3447 21.7677 19.6038 21.5916 19.8214 21.3704C20.039 21.1493 20.2107 20.8873 20.3268 20.5996C20.443 20.3119 20.5011 20.0041 20.498 19.6939V18.4699L21.2708 19.2427C21.334 19.3059 21.4197 19.3414 21.509 19.3414C21.5984 19.3414 21.6841 19.3059 21.7472 19.2427C21.8104 19.1795 21.8459 19.0938 21.8459 19.0045C21.8459 18.9151 21.8104 18.8294 21.7472 18.7662L20.4189 17.4396Z" fill="white" stroke="white" stroke-width="0.4"/>
</g>
<defs>
<clipPath id="clip0_0_6221">
<rect width="22" height="22" fill="white" transform="translate(0.0703125 0.0742188)"/>
</clipPath>
</defs>
</svg>
