<svg width="13" height="13" viewBox="0 0 13 13" fill="none" xmlns="http://www.w3.org/2000/svg">
<path d="M6.93042 0.0239258C3.63042 0.0239258 0.93042 2.72393 0.93042 6.02393C0.93042 9.32393 3.63042 12.0239 6.93042 12.0239C10.2304 12.0239 12.9304 9.32393 12.9304 6.02393C12.9304 2.72393 10.2304 0.0239258 6.93042 0.0239258ZM6.93042 10.8239C4.28442 10.8239 2.13042 8.66993 2.13042 6.02393C2.13042 3.37793 4.28442 1.22393 6.93042 1.22393C9.57642 1.22393 11.7304 3.37793 11.7304 6.02393C11.7304 8.66993 9.57642 10.8239 6.93042 10.8239ZM9.68442 3.37193L5.73042 7.32593L4.17642 5.77793L3.33042 6.62393L5.73042 9.02393L10.5304 4.22393L9.68442 3.37193Z" fill="#0F9835"/>
</svg>
