<svg width="24" height="24" viewBox="0 0 24 24" fill="none" xmlns="http://www.w3.org/2000/svg">
<path fill-rule="evenodd" clip-rule="evenodd" d="M14.5811 19.4039C14.6646 19.9892 14.2607 20.5324 13.6761 20.6209L12.0001 20.9839C11.6308 21.1186 11.217 21.0263 10.9399 20.7476C10.6628 20.4688 10.573 20.0544 10.7098 19.686C10.8467 19.3175 11.1852 19.0622 11.5771 19.0319L13.2521 18.6699C13.8214 18.5088 14.4143 18.8363 14.5811 19.4039V19.4039Z" stroke="white" stroke-width="1.5" stroke-linecap="round" stroke-linejoin="round"/>
<path fill-rule="evenodd" clip-rule="evenodd" d="M7 15.9922C5.89543 15.9922 5 15.0968 5 13.9922L5 10.9922C5 9.88762 5.89543 8.99219 7 8.99219C8.10457 8.99219 9 9.88762 9 10.9922V13.9922C9 15.0968 8.10457 15.9922 7 15.9922Z" stroke="white" stroke-width="1.5" stroke-linecap="round" stroke-linejoin="round"/>
<path fill-rule="evenodd" clip-rule="evenodd" d="M17 15.9922C15.8954 15.9922 15 15.0968 15 13.9922V10.9922C15 9.88762 15.8954 8.99219 17 8.99219C18.1046 8.99219 19 9.88762 19 10.9922V13.9922C19 15.0968 18.1046 15.9922 17 15.9922Z" stroke="white" stroke-width="1.5" stroke-linecap="round" stroke-linejoin="round"/>
<path d="M18.25 11C18.25 11.4142 18.5858 11.75 19 11.75C19.4142 11.75 19.75 11.4142 19.75 11H18.25ZM4.25 11C4.25 11.4142 4.58579 11.75 5 11.75C5.41421 11.75 5.75 11.4142 5.75 11H4.25ZM19.75 14.0023C19.7513 13.5881 19.4165 13.2513 19.0023 13.25C18.5881 13.2487 18.2513 13.5835 18.25 13.9977L19.75 14.0023ZM13.5113 19.8951C13.1071 19.9855 12.8527 20.3865 12.9431 20.7907C13.0335 21.1949 13.4345 21.4493 13.8387 21.3589L13.5113 19.8951ZM19.75 11V9L18.25 9V11H19.75ZM19.75 9C19.75 4.71979 16.2802 1.25 12 1.25V2.75C15.4518 2.75 18.25 5.54822 18.25 9L19.75 9ZM12 1.25C7.71979 1.25 4.25 4.71979 4.25 9H5.75C5.75 5.54822 8.54822 2.75 12 2.75V1.25ZM4.25 9L4.25 11H5.75L5.75 9H4.25ZM18.25 13.9977C18.2414 16.8289 16.2742 19.2771 13.5113 19.8951L13.8387 21.3589C17.2853 20.588 19.7393 17.534 19.75 14.0023L18.25 13.9977Z" fill="white"/>
</svg>
