<svg width="250" height="22" viewBox="0 0 250 22" fill="none" xmlns="http://www.w3.org/2000/svg">
<rect x="0.120313" y="6.12422" width="2.9" height="14.9" fill="#133ED4" fill-opacity="0.32" stroke="white" stroke-width="0.1"/>
<rect x="6.12031" y="4.12422" width="2.9" height="16.9" fill="#133ED4" fill-opacity="0.32" stroke="white" stroke-width="0.1"/>
<rect x="18.1203" y="4.12422" width="2.9" height="16.9" fill="#133ED4" fill-opacity="0.32" stroke="white" stroke-width="0.1"/>
<rect x="24.1203" y="7.12422" width="2.9" height="13.9" fill="#133ED4" fill-opacity="0.32" stroke="white" stroke-width="0.1"/>
<rect x="30.1203" y="10.1242" width="2.9" height="10.9" fill="#133ED4" fill-opacity="0.32" stroke="white" stroke-width="0.1"/>
<rect x="12.1203" y="0.124219" width="2.9" height="20.9" fill="#133ED4" fill-opacity="0.32" stroke="white" stroke-width="0.1"/>
<rect x="36.1203" y="6.12422" width="2.9" height="14.9" fill="#133ED4" fill-opacity="0.32" stroke="white" stroke-width="0.1"/>
<rect x="42.1203" y="4.12422" width="2.9" height="16.9" fill="#133ED4" fill-opacity="0.32" stroke="white" stroke-width="0.1"/>
<rect x="54.1203" y="4.12422" width="2.9" height="16.9" fill="#133ED4" fill-opacity="0.32" stroke="white" stroke-width="0.1"/>
<rect x="60.1203" y="7.12422" width="2.9" height="13.9" fill="#133ED4" fill-opacity="0.32" stroke="white" stroke-width="0.1"/>
<rect x="66.1203" y="10.1242" width="2.9" height="10.9" fill="#133ED4" fill-opacity="0.32" stroke="white" stroke-width="0.1"/>
<rect x="48.1203" y="0.124219" width="2.9" height="20.9" fill="#133ED4" fill-opacity="0.32" stroke="white" stroke-width="0.1"/>
<rect x="72.1203" y="6.12422" width="2.9" height="14.9" fill="#133ED4" fill-opacity="0.32" stroke="white" stroke-width="0.1"/>
<rect x="78.1203" y="4.12422" width="2.9" height="16.9" fill="#133ED4" fill-opacity="0.32" stroke="white" stroke-width="0.1"/>
<rect x="90.1203" y="4.12422" width="2.9" height="16.9" fill="#133ED4" fill-opacity="0.32" stroke="white" stroke-width="0.1"/>
<rect x="96.1203" y="7.12422" width="2.9" height="13.9" fill="#133ED4" fill-opacity="0.32" stroke="white" stroke-width="0.1"/>
<rect x="102.12" y="10.1242" width="2.9" height="10.9" fill="#133ED4" fill-opacity="0.32" stroke="white" stroke-width="0.1"/>
<rect x="84.1203" y="0.124219" width="2.9" height="20.9" fill="#133ED4" fill-opacity="0.32" stroke="white" stroke-width="0.1"/>
<rect x="108.12" y="6.12422" width="2.9" height="14.9" fill="#133ED4" fill-opacity="0.32" stroke="white" stroke-width="0.1"/>
<rect x="114.12" y="4.12422" width="2.9" height="16.9" fill="#133ED4" fill-opacity="0.32" stroke="white" stroke-width="0.1"/>
<rect x="126.12" y="4.12422" width="2.9" height="16.9" fill="#133ED4" fill-opacity="0.32" stroke="white" stroke-width="0.1"/>
<rect x="132.12" y="7.12422" width="2.9" height="13.9" fill="#133ED4" fill-opacity="0.32" stroke="white" stroke-width="0.1"/>
<rect x="138.12" y="10.1242" width="2.9" height="10.9" fill="#133ED4" fill-opacity="0.32" stroke="white" stroke-width="0.1"/>
<rect x="120.12" y="0.124219" width="2.9" height="20.9" fill="#133ED4" fill-opacity="0.32" stroke="white" stroke-width="0.1"/>
<rect x="144.12" y="6.12422" width="2.9" height="14.9" fill="#133ED4" fill-opacity="0.32" stroke="white" stroke-width="0.1"/>
<rect x="150.12" y="4.12422" width="2.9" height="16.9" fill="#133ED4" fill-opacity="0.32" stroke="white" stroke-width="0.1"/>
<rect x="162.12" y="4.12422" width="2.9" height="16.9" fill="#133ED4" fill-opacity="0.32" stroke="white" stroke-width="0.1"/>
<rect x="168.12" y="7.12422" width="2.9" height="13.9" fill="#133ED4" fill-opacity="0.32" stroke="white" stroke-width="0.1"/>
<rect x="174.12" y="10.1242" width="2.9" height="10.9" fill="#133ED4" fill-opacity="0.32" stroke="white" stroke-width="0.1"/>
<rect x="156.12" y="0.124219" width="2.9" height="20.9" fill="#133ED4" fill-opacity="0.32" stroke="white" stroke-width="0.1"/>
<rect x="180.12" y="6.12422" width="2.9" height="14.9" fill="#133ED4" fill-opacity="0.32" stroke="white" stroke-width="0.1"/>
<rect x="186.12" y="4.12422" width="2.9" height="16.9" fill="#133ED4" fill-opacity="0.32" stroke="white" stroke-width="0.1"/>
<rect x="198.12" y="4.12422" width="2.9" height="16.9" fill="#133ED4" fill-opacity="0.32" stroke="white" stroke-width="0.1"/>
<rect x="204.12" y="7.12422" width="2.9" height="13.9" fill="#133ED4" fill-opacity="0.32" stroke="white" stroke-width="0.1"/>
<rect x="210.12" y="10.1242" width="2.9" height="10.9" fill="#133ED4" fill-opacity="0.32" stroke="white" stroke-width="0.1"/>
<rect x="192.12" y="0.124219" width="2.9" height="20.9" fill="#133ED4" fill-opacity="0.32" stroke="white" stroke-width="0.1"/>
<rect x="216.12" y="6.12422" width="2.9" height="14.9" fill="#133ED4" fill-opacity="0.32" stroke="white" stroke-width="0.1"/>
<rect x="222.12" y="4.12422" width="2.9" height="16.9" fill="#133ED4" fill-opacity="0.32" stroke="white" stroke-width="0.1"/>
<rect x="234.12" y="4.12422" width="2.9" height="16.9" fill="#133ED4" fill-opacity="0.32" stroke="white" stroke-width="0.1"/>
<rect x="240.12" y="7.12422" width="2.9" height="13.9" fill="#133ED4" fill-opacity="0.32" stroke="white" stroke-width="0.1"/>
<rect x="246.12" y="10.1242" width="2.9" height="10.9" fill="#133ED4" fill-opacity="0.32" stroke="white" stroke-width="0.1"/>
<rect x="228.12" y="0.124219" width="2.9" height="20.9" fill="#133ED4" fill-opacity="0.32" stroke="white" stroke-width="0.1"/>
</svg>
