<svg width="343" height="228" viewBox="0 0 343 228" fill="none" xmlns="http://www.w3.org/2000/svg">
<g clip-path="url(#clip0_1_10657)">
<path d="M311.386 0.176758H0.132812V199.707H311.386V0.176758Z" fill="white"/>
<path d="M302.486 25.2026H9.0332V187.902H302.486V25.2026Z" fill="#EBF3FF"/>
<path d="M311.254 0H0V13.2358H311.254V0Z" fill="#4D74FF"/>
<path d="M9.82582 9.22001C11.1794 9.22001 12.2766 8.1217 12.2766 6.76687C12.2766 5.41203 11.1794 4.31372 9.82582 4.31372C8.47227 4.31372 7.375 5.41203 7.375 6.76687C7.375 8.1217 8.47227 9.22001 9.82582 9.22001Z" fill="white"/>
<path d="M19.1286 9.22001C20.4821 9.22001 21.5794 8.1217 21.5794 6.76687C21.5794 5.41203 20.4821 4.31372 19.1286 4.31372C17.775 4.31372 16.6777 5.41203 16.6777 6.76687C16.6777 8.1217 17.775 9.22001 19.1286 9.22001Z" fill="white"/>
<path d="M28.4313 9.22001C29.7848 9.22001 30.8821 8.1217 30.8821 6.76687C30.8821 5.41203 29.7848 4.31372 28.4313 4.31372C27.0777 4.31372 25.9805 5.41203 25.9805 6.76687C25.9805 8.1217 27.0777 9.22001 28.4313 9.22001Z" fill="white"/>
<path d="M111.101 42.0842H35.6973V171.021H111.101V42.0842Z" fill="white"/>
<path d="M186.954 42.0842H124.117V77.5756H186.954V42.0842Z" fill="#4D74FF"/>
<path d="M186.954 87.4592H124.117V125.646H186.954V87.4592Z" fill="white"/>
<path d="M186.954 135.53H124.117V171.021H186.954V135.53Z" fill="white"/>
<path d="M275.822 42.0842H200.418V98.2743H275.822V42.0842Z" fill="white"/>
<path d="M275.822 114.831H200.418V171.021H275.822V114.831Z" fill="white"/>
<path d="M246.773 102.311V90.214C246.773 85.9149 248.48 81.7918 251.517 78.7519C254.554 75.712 258.673 74.0042 262.968 74.0042C267.263 74.0042 271.382 75.712 274.419 78.7519C277.456 81.7918 279.162 85.9149 279.162 90.214V102.311C279.162 102.888 278.932 103.442 278.524 103.85C278.117 104.258 277.564 104.488 276.987 104.488H248.949C248.372 104.488 247.819 104.258 247.411 103.85C247.003 103.442 246.774 102.888 246.773 102.311Z" fill="#2F2E41"/>
<path d="M220.217 136.259C220.64 136.83 221.184 137.302 221.808 137.641C222.433 137.979 223.125 138.177 223.834 138.219C224.544 138.262 225.254 138.148 225.914 137.886C226.575 137.624 227.17 137.22 227.658 136.702L243.413 143.795L241.98 134.925L227.239 129.549C226.316 128.787 225.146 128.389 223.95 128.432C222.755 128.475 221.616 128.956 220.751 129.783C219.885 130.609 219.353 131.725 219.255 132.919C219.156 134.113 219.499 135.301 220.217 136.259Z" fill="#FFB8B8"/>
<path d="M252.952 189.6C248.002 189.6 242.878 188.862 238.571 186.667C236.284 185.525 234.258 183.923 232.619 181.961C230.979 179.998 229.762 177.719 229.043 175.264C226.799 168.152 229.629 161.164 232.365 154.407C234.061 150.22 235.662 146.265 236.078 142.366L236.223 140.982C236.87 134.765 237.429 129.397 240.524 127.383C242.128 126.339 244.285 126.279 247.118 127.2L273.728 135.853L272.749 186.413L272.587 186.467C272.448 186.514 263.068 189.6 252.952 189.6Z" fill="#2F2E41"/>
<path d="M246.653 111.46C246.653 111.46 259.705 107.589 269.857 109.041C269.857 109.041 264.056 140.976 265.99 151.622C267.923 162.267 232.392 155.735 239.644 145.573L242.061 133.476C242.061 133.476 237.227 128.638 241.577 122.831L246.653 111.46Z" fill="#4D74FF"/>
<path d="M240.233 188.642L224.146 185.623L229.763 142.361C230.14 141.153 238.84 113.743 242.792 112.26C245.66 111.248 248.594 110.433 251.573 109.818L252.146 109.703L248.92 114.546L236.078 145.347L240.233 188.642Z" fill="#2F2E41"/>
<path d="M231.851 258.835L211.066 255.367L222.73 207.694L240.087 142.498L240.258 143.656C240.271 143.742 241.893 152.259 265.952 148.48L266.163 148.447L266.222 148.653L295.3 251.495L271.618 255.446L250.017 180.412L231.851 258.835Z" fill="#2F2E41"/>
<path d="M260.66 196.738L260.673 196.372C260.688 195.965 262.118 155.546 261.64 139.29C261.161 122.979 266.436 108.854 266.49 108.713L266.533 108.6L266.649 108.566C273.475 106.614 279.396 112.44 279.455 112.499L279.539 112.582L277.595 128.635L285.917 187.011L260.66 196.738Z" fill="#2F2E41"/>
<path d="M259.641 104.207C266.198 104.207 271.514 98.8859 271.514 92.3222C271.514 85.7586 266.198 80.4377 259.641 80.4377C253.083 80.4377 247.768 85.7586 247.768 92.3222C247.768 98.8859 253.083 104.207 259.641 104.207Z" fill="#FFB8B8"/>
<path d="M242.943 91.1816C242.947 87.782 244.298 84.5227 246.7 82.1188C249.101 79.7149 252.358 78.3627 255.754 78.3589H258.171C261.567 78.3627 264.824 79.7149 267.225 82.1188C269.627 84.5227 270.978 87.782 270.982 91.1816V91.4235H265.873L264.131 86.5404L263.783 91.4235H261.143L260.264 88.9597L260.088 91.4235H242.943V91.1816Z" fill="#2F2E41"/>
<path d="M258.472 105.849C258.232 105.524 258.089 105.137 258.059 104.734C258.029 104.331 258.113 103.928 258.302 103.571C260.863 98.6944 264.449 89.6836 259.689 84.1266L259.347 83.7273H273.167V104.495L260.612 106.712C260.485 106.735 260.357 106.746 260.227 106.746C259.885 106.746 259.547 106.665 259.242 106.509C258.937 106.353 258.673 106.127 258.472 105.849Z" fill="#2F2E41"/>
<path d="M202.833 20.1033C193.162 11.9356 181.329 6.75742 168.772 5.19881C156.215 3.64019 143.477 5.76836 132.106 11.3244C120.736 16.8803 111.224 25.6246 104.728 36.4931C98.2315 47.3615 95.0314 59.8856 95.5168 72.5413C96.0022 85.197 100.152 97.4387 107.462 107.777C114.771 118.115 124.925 126.103 136.687 130.77C148.45 135.437 161.314 136.582 173.715 134.064C186.115 131.546 197.517 125.475 206.533 116.59L286.596 184.21C287.814 185.241 289.391 185.745 290.981 185.612C292.571 185.479 294.042 184.719 295.072 183.5C296.102 182.28 296.606 180.701 296.473 179.11C296.34 177.519 295.581 176.046 294.362 175.015L294.354 175.008L214.291 107.387C223.592 94.0258 227.572 77.6695 225.453 61.5236C223.333 45.3776 215.266 30.606 202.833 20.1033ZM197.671 100.876C191.434 108.275 183.145 113.656 173.852 116.339C164.559 119.023 154.68 118.888 145.464 115.951C136.248 113.015 128.109 107.409 122.076 99.8422C116.043 92.2755 112.387 83.0881 111.571 73.4417C110.754 63.7953 112.814 54.1232 117.489 45.6485C122.164 37.1737 129.245 30.277 137.837 25.8305C146.428 21.3839 156.143 19.5872 165.755 20.6676C175.366 21.748 184.441 25.6569 191.833 31.9001C196.741 36.0454 200.786 41.1177 203.735 46.8275C206.685 52.5373 208.482 58.7727 209.024 65.1776C209.566 71.5826 208.843 78.0317 206.895 84.1568C204.947 90.2819 201.813 95.9629 197.671 100.876Z" fill="#3F3D56"/>
<path opacity="0.3" d="M128.76 106.719C119.379 98.7952 113.318 87.6296 111.78 75.4395C110.243 63.2494 113.342 50.9264 120.462 40.9175C119.527 41.86 118.623 42.8471 117.75 43.8787C113.609 48.7914 110.474 54.4725 108.527 60.5976C106.579 66.7227 105.855 73.1718 106.397 79.5768C106.939 85.9818 108.736 92.2171 111.686 97.9269C114.636 103.637 118.68 108.709 123.588 112.854C128.496 117 134.172 120.137 140.291 122.086C146.41 124.036 152.853 124.76 159.252 124.218C165.651 123.675 171.88 121.876 177.585 118.924C183.289 115.972 188.357 111.923 192.498 107.011C193.369 105.978 194.189 104.92 194.958 103.837C186.299 112.546 174.684 117.676 162.421 118.21C150.157 118.744 138.142 114.643 128.76 106.719Z" fill="black"/>
<path d="M263.453 157.035C264.143 157.204 264.862 157.219 265.559 157.08C266.256 156.941 266.914 156.65 267.487 156.229C268.059 155.808 268.532 155.266 268.873 154.642C269.214 154.017 269.414 153.326 269.459 152.616L286.104 147.991L279.338 142.086L264.568 147.383C263.372 147.387 262.218 147.83 261.326 148.628C260.434 149.426 259.865 150.524 259.728 151.713C259.59 152.903 259.893 154.102 260.58 155.083C261.267 156.063 262.289 156.758 263.453 157.035Z" fill="#FFB8B8"/>
<path d="M270.37 154.587L269.357 144.955L283.262 137.277L274.196 126.293L275.676 113.954L279.359 112.374L279.474 112.521C281.211 114.757 296.444 134.431 296.444 136.864C296.444 139.362 293.53 146.698 289.543 148.693C285.697 150.618 271.255 154.359 270.642 154.518L270.37 154.587Z" fill="#2F2E41"/>
</g>
<defs>
<clipPath id="clip0_1_10657">
<rect width="343" height="270.29" fill="white"/>
</clipPath>
</defs>
</svg>
