<svg width="15" height="9" viewBox="0 0 15 9" fill="none" xmlns="http://www.w3.org/2000/svg">
<path d="M14.1943 1.28571H0.642857C0.472361 1.28571 0.308848 1.21798 0.188289 1.09743C0.0677295 0.976867 0 0.813353 0 0.642857C0 0.472361 0.0677295 0.308848 0.188289 0.188289C0.308848 0.0677295 0.472361 0 0.642857 0H14.1943C14.3648 0 14.5283 0.0677295 14.6489 0.188289C14.7694 0.308848 14.8371 0.472361 14.8371 0.642857C14.8371 0.813353 14.7694 0.976867 14.6489 1.09743C14.5283 1.21798 14.3648 1.28571 14.1943 1.28571Z" fill="black"/>
<path d="M9.45643 5.14265H0.642857C0.472361 5.14265 0.308848 5.07492 0.188289 4.95436C0.0677295 4.8338 0 4.67029 0 4.49979C0 4.32929 0.0677295 4.16578 0.188289 4.04522C0.308848 3.92466 0.472361 3.85693 0.642857 3.85693H9.45643C9.62693 3.85693 9.79044 3.92466 9.911 4.04522C10.0316 4.16578 10.0993 4.32929 10.0993 4.49979C10.0993 4.67029 10.0316 4.8338 9.911 4.95436C9.79044 5.07492 9.62693 5.14265 9.45643 5.14265Z" fill="black"/>
<path d="M4.68 9.00007H0.642857C0.472361 9.00007 0.308848 8.93234 0.188289 8.81178C0.0677295 8.69122 0 8.52771 0 8.35721C0 8.18672 0.0677295 8.0232 0.188289 7.90264C0.308848 7.78208 0.472361 7.71436 0.642857 7.71436H4.68C4.8505 7.71436 5.01401 7.78208 5.13457 7.90264C5.25513 8.0232 5.32286 8.18672 5.32286 8.35721C5.32286 8.52771 5.25513 8.69122 5.13457 8.81178C5.01401 8.93234 4.8505 9.00007 4.68 9.00007Z" fill="black"/>
</svg>
