<svg width="19" height="19" viewBox="0 0 19 19" fill="none" xmlns="http://www.w3.org/2000/svg">
<path d="M11.6094 15.957V11.907C11.6094 11.487 11.6094 11.277 11.5276 11.1165C11.4557 10.9754 11.341 10.8607 11.1999 10.7888C11.0394 10.707 10.8294 10.707 10.4094 10.707H8.30938C7.88934 10.707 7.67932 10.707 7.51888 10.7888C7.37776 10.8607 7.26303 10.9754 7.19112 11.1165C7.10938 11.277 7.10938 11.487 7.10938 11.907V15.957M2.60938 5.45703C2.60938 6.69967 3.61673 7.70703 4.85938 7.70703C6.10202 7.70703 7.10938 6.69967 7.10938 5.45703C7.10938 6.69967 8.11673 7.70703 9.35938 7.70703C10.602 7.70703 11.6094 6.69967 11.6094 5.45703C11.6094 6.69967 12.6167 7.70703 13.8594 7.70703C15.102 7.70703 16.1094 6.69967 16.1094 5.45703M5.00937 15.957H13.7094C14.5495 15.957 14.9695 15.957 15.2904 15.7935C15.5726 15.6497 15.8021 15.4203 15.9459 15.138C16.1094 14.8172 16.1094 14.3971 16.1094 13.557V4.85703C16.1094 4.01695 16.1094 3.59691 15.9459 3.27605C15.8021 2.9938 15.5726 2.76433 15.2904 2.62052C14.9695 2.45703 14.5495 2.45703 13.7094 2.45703H5.00938C4.1693 2.45703 3.74926 2.45703 3.42839 2.62052C3.14615 2.76433 2.91668 2.9938 2.77287 3.27605C2.60938 3.59691 2.60938 4.01695 2.60938 4.85703V13.557C2.60938 14.3971 2.60938 14.8172 2.77287 15.138C2.91668 15.4203 3.14615 15.6497 3.42839 15.7935C3.74926 15.957 4.1693 15.957 5.00937 15.957Z" stroke="#133ED4" stroke-linecap="round" stroke-linejoin="round"/>
</svg>
