<svg width="19" height="19" viewBox="0 0 19 19" fill="none" xmlns="http://www.w3.org/2000/svg">
<path d="M16.1094 12.207V5.60703C16.1094 4.76695 16.1094 4.34691 15.9459 4.02605C15.8021 3.7438 15.5726 3.51433 15.2904 3.37052C14.9695 3.20703 14.5495 3.20703 13.7094 3.20703H5.00937C4.1693 3.20703 3.74926 3.20703 3.42839 3.37052C3.14615 3.51433 2.91668 3.7438 2.77287 4.02605C2.60937 4.34691 2.60938 4.76695 2.60938 5.60703V12.207M3.85937 15.207H14.8594C15.3244 15.207 15.5569 15.207 15.7476 15.1559C16.2652 15.0172 16.6696 14.6129 16.8083 14.0953C16.8594 13.9045 16.8594 13.672 16.8594 13.207C16.8594 12.9745 16.8594 12.8583 16.8338 12.7629C16.7645 12.5041 16.5623 12.3019 16.3035 12.2326C16.2081 12.207 16.0919 12.207 15.8594 12.207H2.85937C2.62688 12.207 2.51064 12.207 2.41526 12.2326C2.15644 12.3019 1.95428 12.5041 1.88493 12.7629C1.85938 12.8583 1.85938 12.9745 1.85938 13.207C1.85938 13.672 1.85938 13.9045 1.91049 14.0953C2.04919 14.6129 2.45351 15.0172 2.97115 15.1559C3.1619 15.207 3.39439 15.207 3.85937 15.207Z" stroke="#133ED4" stroke-linecap="round" stroke-linejoin="round"/>
<path d="M6.90234 8.25458L8.63311 9.98535L12.787 5.48535" stroke="#133ED4" stroke-linecap="round" stroke-linejoin="round"/>
</svg>
