<svg width="19" height="19" viewBox="0 0 19 19" fill="none" xmlns="http://www.w3.org/2000/svg">
<path d="M2.91946 8.26539C2.47296 8.09175 2.2497 8.00493 2.18452 7.87982C2.12802 7.77138 2.12794 7.64219 2.18432 7.53367C2.24935 7.40849 2.4725 7.32141 2.91881 7.14724L15.5846 2.20449C15.9875 2.04726 16.1889 1.96865 16.3177 2.01165C16.4295 2.049 16.5172 2.13672 16.5545 2.24851C16.5975 2.37723 16.5189 2.57867 16.3617 2.98156L11.4189 15.6474C11.2448 16.0937 11.1577 16.3168 11.0325 16.3819C10.924 16.4382 10.7948 16.4382 10.6864 16.3817C10.5612 16.3165 10.4744 16.0932 10.3008 15.6467L8.3297 10.5782C8.29445 10.4876 8.27683 10.4423 8.24961 10.4041C8.22548 10.3703 8.19591 10.3407 8.16208 10.3166C8.12392 10.2893 8.0786 10.2717 7.98797 10.2365L2.91946 8.26539Z" stroke="#133ED4" stroke-linecap="round" stroke-linejoin="round"/>
</svg>
