<svg width="79" height="17" viewBox="0 0 79 17" fill="none" xmlns="http://www.w3.org/2000/svg">
<path d="M72.0895 6.57933L58.0079 5.74219C58.0079 7.90078 59.4251 9.34276 61.8372 9.53853L71.8587 10.3107C72.6308 10.3735 73.1173 10.5641 73.1173 11.2062C73.1173 11.8483 72.5702 12.0463 71.4394 12.0463H57.7793V16.2232H71.7309C76.1313 16.2232 78.0693 14.6863 78.0693 11.1734C78.0693 8.02423 76.3315 6.84084 72.0888 6.58006" fill="white"/>
<path d="M53.254 10.2131C53.254 11.6902 52.5119 12.1438 49.942 12.1438H46.4013C44.288 12.1438 43.383 11.5294 43.383 10.2131V5.0376L38.8846 4.71692V10.5995H38.7867C38.5303 8.89896 37.8817 6.90108 33.6134 6.61253L19.5223 5.6797C19.5223 7.83099 21.0695 9.12249 23.4794 9.37597L33.2884 10.3738C34.0576 10.4337 34.6441 10.6645 34.6441 11.3088C34.6441 12.0159 34.0568 12.0788 33.1569 12.0788H19.366V5.64683L14.8574 5.35829V16.2228H33.189C37.271 16.2228 38.5902 14.1015 38.786 12.3396H38.8839C39.3923 15.13 41.8329 16.2228 45.985 16.2228H50.5556C55.4024 16.2228 57.6888 14.7443 57.6888 11.2738V5.74252L53.2533 5.48685V10.2131H53.254Z" fill="white"/>
<path d="M0.0722656 16.2229H5.5385L12.3861 5.16108L7.49913 4.68188L0.0722656 16.2229Z" fill="white"/>
<path d="M62.5094 0.148438C59.3274 0.148438 57.911 2.14413 57.6875 4.04267V0.148438H53.252V4.26547H77.6188V0.148438H62.5094Z" fill="white"/>
<path d="M43.3831 0.148438H38.8848V4.26547H43.3831V0.148438Z" fill="white"/>
<path d="M38.0798 0.148438H24.3495C21.1675 0.148438 19.7533 2.14413 19.4326 4.04267V0.148438H11.8027C10.7573 0.148438 10.2329 0.469122 9.7164 1.2113L7.63086 4.26547H38.0805V0.148438H38.0798Z" fill="white"/>
</svg>
