<svg width="50" height="50" viewBox="0 0 50 50" fill="none" xmlns="http://www.w3.org/2000/svg">
<circle cx="24.5723" cy="25.3955" r="24.5" fill="url(#paint0_linear_90_3569)" fill-opacity="0.1"/>
<circle cx="24.5723" cy="25.3955" r="24" stroke="url(#paint1_linear_90_3569)" stroke-opacity="0.5"/>
<g clip-path="url(#clip0_90_3569)">
<path d="M26.6095 20.3955C27.3421 20.5384 28.0153 20.8967 28.5431 21.4245C29.0708 21.9522 29.4291 22.6255 29.572 23.358M26.6095 17.3955C28.1315 17.5646 29.5507 18.2461 30.6342 19.3283C31.7177 20.4104 32.401 21.8288 32.572 23.3505M23.7422 26.2928C22.8411 25.3916 22.1295 24.3726 21.6075 23.2854C21.5626 23.1919 21.5401 23.1452 21.5229 23.086C21.4616 22.8757 21.5056 22.6175 21.6331 22.4395C21.669 22.3893 21.7119 22.3465 21.7976 22.2607C22.0598 21.9985 22.1909 21.8674 22.2766 21.7356C22.5999 21.2384 22.5999 20.5975 22.2766 20.1003C22.1909 19.9685 22.0598 19.8374 21.7976 19.5752L21.6514 19.429C21.2529 19.0305 21.0536 18.8312 20.8395 18.7229C20.4139 18.5076 19.9112 18.5076 19.4855 18.7229C19.2715 18.8312 19.0722 19.0305 18.6736 19.429L18.5554 19.5473C18.1581 19.9445 17.9595 20.1431 17.8079 20.4131C17.6395 20.7127 17.5185 21.1781 17.5195 21.5218C17.5205 21.8315 17.5805 22.0432 17.7007 22.4665C18.3464 24.7415 19.5648 26.8883 21.3558 28.6793C23.1467 30.4703 25.2935 31.6886 27.5686 32.3344C27.9919 32.4545 28.2036 32.5146 28.5133 32.5155C28.8569 32.5165 29.3223 32.3955 29.6219 32.2272C29.892 32.0755 30.0906 31.8769 30.4878 31.4797L30.606 31.3615C31.0046 30.9629 31.2039 30.7636 31.3121 30.5496C31.5274 30.1239 31.5274 29.6212 31.3121 29.1955C31.2039 28.9815 31.0046 28.7822 30.606 28.3836L30.4599 28.2375C30.1977 27.9753 30.0666 27.8442 29.9347 27.7584C29.4376 27.4352 28.7966 27.4352 28.2995 27.7584C28.1676 27.8442 28.0365 27.9753 27.7743 28.2375C27.6886 28.3232 27.6457 28.3661 27.5956 28.4019C27.4175 28.5294 27.1593 28.5735 26.9491 28.5122C26.8899 28.4949 26.8431 28.4725 26.7496 28.4276C25.6624 27.9056 24.6434 27.194 23.7422 26.2928Z" stroke="white" stroke-linecap="round" stroke-linejoin="round"/>
</g>
<defs>
<linearGradient id="paint0_linear_90_3569" x1="2.36914" y1="6.7542" x2="51.0447" y2="11.847" gradientUnits="userSpaceOnUse">
<stop stop-color="white"/>
<stop offset="1" stop-color="#C8CAD0"/>
</linearGradient>
<linearGradient id="paint1_linear_90_3569" x1="24.5723" y1="0.895508" x2="24.5723" y2="49.8955" gradientUnits="userSpaceOnUse">
<stop stop-color="#777777"/>
<stop offset="1" stop-color="#B6B6B6"/>
</linearGradient>
<clipPath id="clip0_90_3569">
<rect width="18" height="18" fill="white" transform="translate(16.0723 15.8955)"/>
</clipPath>
</defs>
</svg>
