<svg width="78" height="17" viewBox="0 0 78 17" fill="none" xmlns="http://www.w3.org/2000/svg">
<g clip-path="url(#clip0_48_2422)">
<path d="M72.0173 6.43089L57.9357 5.59375C57.9357 7.75234 59.3528 9.19432 61.7649 9.39009L71.7864 10.1622C72.5586 10.225 73.0451 10.4157 73.0451 11.0578C73.0451 11.6999 72.4979 11.8979 71.3671 11.8979H57.707V16.0748H71.6586C76.0591 16.0748 77.9971 14.5378 77.9971 11.0249C77.9971 7.87579 76.2592 6.6924 72.0166 6.43162" fill="#53565A"/>
<path d="M53.1818 10.0645C53.1818 11.5416 52.4396 11.9952 49.8697 11.9952H46.3291C44.2158 11.9952 43.3107 11.3809 43.3107 10.0645V4.88904L38.8124 4.56836V10.451H38.7145C38.4581 8.7504 37.8094 6.75252 33.5412 6.46397L19.4501 5.53114C19.4501 7.68243 20.9972 8.97393 23.4071 9.22741L33.2161 10.2253C33.9853 10.2852 34.5719 10.516 34.5719 11.1603C34.5719 11.8674 33.9846 11.9302 33.0846 11.9302H19.2937V5.49827L14.7852 5.20973V16.0743H33.1167C37.1987 16.0743 38.518 13.9529 38.7137 12.191H38.8116C39.32 14.9815 41.7606 16.0743 45.9127 16.0743H50.4834C55.3301 16.0743 57.6166 14.5958 57.6166 11.1252V5.59396L53.181 5.33829V10.0645H53.1818Z" fill="#53565A"/>
<path d="M0 16.0742H5.46624L12.3138 5.0124L7.42687 4.5332L0 16.0742Z" fill="#53565A"/>
<path d="M62.4372 0C59.2552 0 57.8387 1.99569 57.6152 3.89423V0H53.1797V4.11703H77.5466V0H62.4372Z" fill="#53565A"/>
<path d="M43.3108 0H38.8125V4.11703H43.3108V0Z" fill="#53565A"/>
<path d="M38.0075 0H24.2773C21.0953 0 19.681 1.99569 19.3604 3.89423V0H11.7304C10.6851 0 10.1606 0.320684 9.64414 1.06286L7.55859 4.11703H38.0082V0H38.0075Z" fill="#53565A"/>
</g>
<defs>
<clipPath id="clip0_48_2422">
<rect width="78" height="16.0744" fill="white"/>
</clipPath>
</defs>
</svg>
